<svg xmlns="http://www.w3.org/2000/svg" width="125.054" height="109.99" viewBox="0 0 125.054 109.99">
  <g id="Group_127" data-name="Group 127" transform="translate(-107.093 -3187.417)">
    <path id="Path_327" data-name="Path 327" d="M119.511,99.308H5.541a5,5,0,0,1-5-5V13.775a5,5,0,0,1,5-5h113.97a5,5,0,0,1,5,5V94.307a5,5,0,0,1-5,5" transform="translate(107.093 3187.008)"/>
    <rect id="Rectangle_3134" data-name="Rectangle 3134" width="123.971" height="90.535" rx="4.267" transform="translate(107.634 3195.781)" fill="none" stroke="#fff" stroke-width="1.083"/>
    <path id="Path_328" data-name="Path 328" d="M73.351,111.548a4.939,4.939,0,0,1-2.32-.56c-.864-.441-19.77-9.56-32.281-15.588a8.925,8.925,0,0,1-2.982-2.361c-.791-.962-6.67-8.8-7.918-10.459a4.153,4.153,0,0,1-.555-.959c-.225-.227-.732-.8-2.487-2.944l-4.7.988-.285.019s-.216.015-.536.015a5.661,5.661,0,0,1-4.048-1.318c-.246-.23-.621-.58-10.468-12.99l-.225-.284-.166-.323a6.473,6.473,0,0,1,.232-6.252c.614-.99,5.237-8.883,6.967-11.842l.267-.457.062-.06a5.6,5.6,0,0,1,.47-1.519c.493-1.05,5-8.647,6.908-11.864l.111-.186.131-.173a6.511,6.511,0,0,1,.544-.615,5.247,5.247,0,0,1,.55-1.488c.484-.882,5.319-9,6.284-10.618l.042-.07.045-.068a7.436,7.436,0,0,1,3.83-2.856c1.144-.354,11.312-3.622,11.415-3.656l.149-.048.154-.035a7.724,7.724,0,0,1,1.648-.176h.128a4.99,4.99,0,0,1,1.161-.6c.72-.259,12.064-4.049,13.356-4.481l.3-.1.308-.048a8.268,8.268,0,0,1,1.227-.088c.135,0,.268,0,.4.009a6.668,6.668,0,0,1,2.174-1.2c1.405-.478,12.507-4.114,12.979-4.27l.218-.07.225-.045A13.17,13.17,0,0,1,79,1.695a5.951,5.951,0,0,1,4.971,2.052c.853,1.088,6.312,9.97,8.618,13.739l.195.316.127.348a7.88,7.88,0,0,1-.1,5.166c-.243.676-.862,2.235-1.5,3.818l3.861.391.086.012a7.654,7.654,0,0,1,5.029,3.592c1.1,1.73,7.6,12.445,7.873,12.9l.108.179.087.189c.046.1.093.2.138.318a5.977,5.977,0,0,1,1.2,1.161c.739.945,5.432,8.495,8.162,12.912l.107.171.086.18a5.686,5.686,0,0,1-.7,5.986c-.785.971-10.031,11.584-11.082,12.792l-.159.182-.182.162a4.8,4.8,0,0,1-1.234.772,5.464,5.464,0,0,1-.943,1.542c-.681.782-11.066,12.6-11.508,13.1l-.479.546-.65.326c-.052.026-.124.06-.216.1a4.694,4.694,0,0,1-.868,1.425c-.505.566-11.953,13.232-12.441,13.771l-.325.361-.408.264a6.794,6.794,0,0,1-3.488,1.079" transform="translate(107.633 3185.791)" fill="#fff"/>
    <path id="Path_329" data-name="Path 329" d="M73.351,111.548a4.939,4.939,0,0,1-2.32-.56c-.864-.441-19.77-9.56-32.281-15.588a8.925,8.925,0,0,1-2.982-2.361c-.791-.962-6.67-8.8-7.918-10.459a4.153,4.153,0,0,1-.555-.959c-.225-.227-.732-.8-2.487-2.944l-4.7.988-.285.019s-.216.015-.536.015a5.661,5.661,0,0,1-4.048-1.318c-.246-.23-.621-.58-10.468-12.99l-.225-.284-.166-.323a6.473,6.473,0,0,1,.232-6.252c.614-.99,5.237-8.883,6.967-11.842l.267-.457.062-.06a5.6,5.6,0,0,1,.47-1.519c.493-1.05,5-8.647,6.908-11.864l.111-.186.131-.173a6.511,6.511,0,0,1,.544-.615,5.247,5.247,0,0,1,.55-1.488c.484-.882,5.319-9,6.284-10.618l.042-.07.045-.068a7.436,7.436,0,0,1,3.83-2.856c1.144-.354,11.312-3.622,11.415-3.656l.149-.048.154-.035a7.724,7.724,0,0,1,1.648-.176h.128a4.99,4.99,0,0,1,1.161-.6c.72-.259,12.064-4.049,13.356-4.481l.3-.1.308-.048a8.268,8.268,0,0,1,1.227-.088c.135,0,.268,0,.4.009a6.668,6.668,0,0,1,2.174-1.2c1.405-.478,12.507-4.114,12.979-4.27l.218-.07.225-.045A13.17,13.17,0,0,1,79,1.695a5.951,5.951,0,0,1,4.971,2.052c.853,1.088,6.312,9.97,8.618,13.739l.195.316.127.348a7.88,7.88,0,0,1-.1,5.166c-.243.676-.862,2.235-1.5,3.818l3.861.391.086.012a7.654,7.654,0,0,1,5.029,3.592c1.1,1.73,7.6,12.445,7.873,12.9l.108.179.087.189c.046.1.093.2.138.318a5.977,5.977,0,0,1,1.2,1.161c.739.945,5.432,8.495,8.162,12.912l.107.171.086.18a5.686,5.686,0,0,1-.7,5.986c-.785.971-10.031,11.584-11.082,12.792l-.159.182-.182.162a4.8,4.8,0,0,1-1.234.772,5.464,5.464,0,0,1-.943,1.542c-.681.782-11.066,12.6-11.508,13.1l-.479.546-.65.326c-.052.026-.124.06-.216.1a4.694,4.694,0,0,1-.868,1.425c-.505.566-11.953,13.232-12.441,13.771l-.325.361-.408.264A6.794,6.794,0,0,1,73.351,111.548Z" transform="translate(107.633 3185.791)" fill="none" stroke="#000" stroke-width="0.137"/>
    <path id="Path_330" data-name="Path 330" d="M4.7,63.279a2.953,2.953,0,0,1,.09-2.721c.817-1.316,7.393-12.565,7.393-12.565a1.4,1.4,0,0,1,1.373-.289c.765.287.144-.223.144-.223l-.335-.271a1.427,1.427,0,0,1-.176-1.675c.495-1.052,7.1-12.162,7.1-12.162s.766-1,1.652-.914.059-.325.059-.325l-.148-.089a1.05,1.05,0,0,1-.088-1.386c.5-.915,6.55-11.064,6.55-11.064a3.885,3.885,0,0,1,1.917-1.417C31.472,17.8,42.3,14.314,42.3,14.314a3.37,3.37,0,0,1,2.479.383c.945.738.354-.383.354-.383a1,1,0,0,1,.708-.943c.738-.266,13.985-4.692,13.985-4.692s1.888-.294,2.6.62.532-.766.532-.766.059-.855,1.534-1.357S78.117,2.69,78.117,2.69s3.009-.591,3.865.5,8.822,14.1,8.822,14.1a4.377,4.377,0,0,1-.118,2.774c-.56,1.563-3.393,8.467-3.393,8.467s-.089.236.118.266,8.968.914,8.968.914a4.129,4.129,0,0,1,2.566,2.014c1.152,1.8,8.246,13.513,8.246,13.513s.493,1.069.239,1.536a1.761,1.761,0,0,1,1.642.795c.763.974,8.352,13.248,8.352,13.248a2.131,2.131,0,0,1-.254,2.15c-.805,1-11.583,13.366-11.583,13.366a3.158,3.158,0,0,1-2.121.424,3.557,3.557,0,0,1-.53,2.375c-.722.827-12.114,13.789-12.114,13.789a4.081,4.081,0,0,1-2.016.34s.233,1.569-.3,2.163-13.09,14.49-13.09,14.49-1.273.827-2.163.361S39.1,93.787,39.1,93.787a5.547,5.547,0,0,1-1.791-1.437c-.826-1-8.261-10.916-8.261-10.916s-.443-.531.443-1.121-.3-.294-.3-.294-.737.323-1.062.029-3.865-4.662-3.865-4.662l-7.022,1.475s-1.475.088-1.918-.325S4.7,63.279,4.7,63.279" transform="translate(107.757 3185.935)" fill="#1a171b"/>
    <path id="Path_331" data-name="Path 331" d="M25.826,18.2,20.883,26.3s-.759,1.274.894.867S32.7,24.045,32.7,24.045a3.868,3.868,0,0,0,1.761-1.22c.732-.921,5.15-9.081,5.15-9.081s.57-.976-.813-.6S27.832,16.6,27.832,16.6a4.382,4.382,0,0,0-2.006,1.6" transform="translate(110.559 3187.745)" fill="#fff"/>
    <path id="Path_332" data-name="Path 332" d="M25.826,18.2,20.883,26.3s-.759,1.274.894.867S32.7,24.045,32.7,24.045a3.868,3.868,0,0,0,1.761-1.22c.732-.921,5.15-9.081,5.15-9.081s.57-.976-.813-.6S27.832,16.6,27.832,16.6A4.382,4.382,0,0,0,25.826,18.2Z" transform="translate(110.559 3187.745)" fill="none" stroke="#000" stroke-width="0.145"/>
    <path id="Path_333" data-name="Path 333" d="M39.341,14.061,35.5,22.066s-.759,1.273.9.867S47.467,19.7,47.467,19.7a3.891,3.891,0,0,0,1.761-1.22c.732-.922,4.18-9.025,4.18-9.025s.568-.974-.813-.594-11.248,3.6-11.248,3.6a3.5,3.5,0,0,0-2.006,1.6" transform="translate(113.072 3187.008)" fill="#fff"/>
    <path id="Path_334" data-name="Path 334" d="M39.341,14.061,35.5,22.066s-.759,1.273.9.867S47.467,19.7,47.467,19.7a3.891,3.891,0,0,0,1.761-1.22c.732-.922,4.18-9.025,4.18-9.025s.568-.974-.813-.594-11.248,3.6-11.248,3.6A3.5,3.5,0,0,0,39.341,14.061Z" transform="translate(113.072 3187.008)" fill="none" stroke="#000" stroke-width="0.145"/>
    <path id="Path_335" data-name="Path 335" d="M18.726,30.176l-5.146,9.059s-.807,1.412.925.975,11.341-3.042,11.341-3.042A4.047,4.047,0,0,0,27.7,35.826c.773-1.021,5.435-10.208,5.435-10.208s.6-1.083-.845-.674-11.454,3.47-11.454,3.47a3.96,3.96,0,0,0-2.113,1.763" transform="translate(109.302 3189.771)" fill="#fff"/>
    <path id="Path_336" data-name="Path 336" d="M18.726,30.176l-5.146,9.059s-.807,1.412.925.975,11.341-3.042,11.341-3.042A4.047,4.047,0,0,0,27.7,35.826c.773-1.021,5.435-10.208,5.435-10.208s.6-1.083-.845-.674-11.454,3.47-11.454,3.47A3.96,3.96,0,0,0,18.726,30.176Z" transform="translate(109.302 3189.771)" fill="none" stroke="#000" stroke-width="0.145"/>
    <path id="Path_337" data-name="Path 337" d="M12.127,42.655,6.411,52.681s-.807,1.413.926.976,11.338-2.873,11.338-2.873a4.035,4.035,0,0,0,1.855-1.342c.776-1.02,5.672-10.8,5.672-10.8s.606-1.082-.845-.673-11.115,2.921-11.115,2.921a4.175,4.175,0,0,0-2.114,1.763" transform="translate(108.07 3192.011)" fill="#fff"/>
    <path id="Path_338" data-name="Path 338" d="M12.127,42.655,6.411,52.681s-.807,1.413.926.976,11.338-2.873,11.338-2.873a4.035,4.035,0,0,0,1.855-1.342c.776-1.02,5.672-10.8,5.672-10.8s.606-1.082-.845-.673-11.115,2.921-11.115,2.921A4.175,4.175,0,0,0,12.127,42.655Z" transform="translate(108.07 3192.011)" fill="none" stroke="#000" stroke-width="0.145"/>
    <path id="Path_339" data-name="Path 339" d="M26.682,38.622l-4.927,10.43s-.806,1.412.927.975,12.735-3.12,12.735-3.12a4.035,4.035,0,0,0,1.855-1.342c.776-1.02,5.262-11.286,5.262-11.286s.606-1.083-.844-.673S28.8,36.86,28.8,36.86a3.8,3.8,0,0,0-2.114,1.763" transform="translate(110.707 3191.26)" fill="#fff"/>
    <path id="Path_340" data-name="Path 340" d="M26.682,38.622l-4.927,10.43s-.806,1.412.927.975,12.735-3.12,12.735-3.12a4.035,4.035,0,0,0,1.855-1.342c.776-1.02,5.262-11.286,5.262-11.286s.606-1.083-.844-.673S28.8,36.86,28.8,36.86A3.8,3.8,0,0,0,26.682,38.622Z" transform="translate(110.707 3191.26)" fill="none" stroke="#000" stroke-width="0.145"/>
    <path id="Path_341" data-name="Path 341" d="M33.609,25.694,28.6,35.253s-.806,1.412.927.975,12.179-3,12.179-3a4.041,4.041,0,0,0,1.856-1.342c.775-1.021,5.019-10.857,5.019-10.857s.606-1.082-.844-.673-12.014,3.574-12.014,3.574a3.8,3.8,0,0,0-2.114,1.763" transform="translate(111.883 3188.983)" fill="#fff"/>
    <path id="Path_342" data-name="Path 342" d="M33.609,25.694,28.6,35.253s-.806,1.412.927.975,12.179-3,12.179-3a4.041,4.041,0,0,0,1.856-1.342c.775-1.021,5.019-10.857,5.019-10.857s.606-1.082-.844-.673-12.014,3.574-12.014,3.574A3.8,3.8,0,0,0,33.609,25.694Z" transform="translate(111.883 3188.983)" fill="none" stroke="#000" stroke-width="0.145"/>
    <path id="Path_343" data-name="Path 343" d="M43.4,34.043,38.568,44.608s-.807,1.412.926.975S53.96,41.9,53.96,41.9a4.035,4.035,0,0,0,1.855-1.342c.776-1.021,4.484-11.62,4.484-11.62s.4-1.021-.844-.673C58,28.672,45.518,32.28,45.518,32.28A3.315,3.315,0,0,0,43.4,34.043" transform="translate(113.597 3190.346)" fill="#fff"/>
    <path id="Path_344" data-name="Path 344" d="M43.4,34.043,38.568,44.608s-.807,1.412.926.975S53.96,41.9,53.96,41.9a4.035,4.035,0,0,0,1.855-1.342c.776-1.021,4.484-11.62,4.484-11.62s.4-1.021-.844-.673C58,28.672,45.518,32.28,45.518,32.28A3.315,3.315,0,0,0,43.4,34.043Z" transform="translate(113.597 3190.346)" fill="none" stroke="#000" stroke-width="0.145"/>
    <path id="Path_345" data-name="Path 345" d="M49.037,21.13l-4.076,9.253s-.807,1.413.926.976,12.836-3.683,12.836-3.683a4.025,4.025,0,0,0,1.855-1.342c.775-1.02,4.465-10.41,4.465-10.41s.4-1.021-.844-.673c-1.451.405-13.048,4.116-13.048,4.116a3.315,3.315,0,0,0-2.114,1.763" transform="translate(114.696 3188.109)" fill="#fff"/>
    <path id="Path_346" data-name="Path 346" d="M49.037,21.13l-4.076,9.253s-.807,1.413.926.976,12.836-3.683,12.836-3.683a4.025,4.025,0,0,0,1.855-1.342c.775-1.02,4.465-10.41,4.465-10.41s.4-1.021-.844-.673c-1.451.405-13.048,4.116-13.048,4.116A3.315,3.315,0,0,0,49.037,21.13Z" transform="translate(114.696 3188.109)" fill="none" stroke="#000" stroke-width="0.145"/>
    <path id="Path_347" data-name="Path 347" d="M54.7,9.136l-3.428,7.948s-.807,1.412.926.975,12.113-3.682,12.113-3.682a4.041,4.041,0,0,0,1.856-1.342c.775-1.021,3.853-8.984,3.853-8.984s.4-1.021-.845-.673c-1.45.405-12.361,3.995-12.361,3.995A3.315,3.315,0,0,0,54.7,9.136" transform="translate(115.781 3186.068)" fill="#fff"/>
    <path id="Path_348" data-name="Path 348" d="M54.7,9.136l-3.428,7.948s-.807,1.412.926.975,12.113-3.682,12.113-3.682a4.041,4.041,0,0,0,1.856-1.342c.775-1.021,3.853-8.984,3.853-8.984s.4-1.021-.845-.673c-1.45.405-12.361,3.995-12.361,3.995A3.315,3.315,0,0,0,54.7,9.136Z" transform="translate(115.781 3186.068)" fill="none" stroke="#000" stroke-width="0.145"/>
    <path id="Path_349" data-name="Path 349" d="M84.947,28.867s1-.971,1.736.091c.56.814,7.342,11.805,7.342,11.805s.686,1.141-.045,1.918S83.94,54.315,83.94,54.315a.874.874,0,0,1-1.233-.091c-.594-.64-8.5-11.925-8.5-11.925a1.653,1.653,0,0,1,.183-1.873c.777-.823,10.555-11.559,10.555-11.559" transform="translate(119.718 3190.392)" fill="#fff"/>
    <path id="Path_350" data-name="Path 350" d="M84.947,28.867s1-.971,1.736.091c.56.814,7.342,11.805,7.342,11.805s.686,1.141-.045,1.918S83.94,54.315,83.94,54.315a.874.874,0,0,1-1.233-.091c-.594-.64-8.5-11.925-8.5-11.925a1.653,1.653,0,0,1,.183-1.873C75.169,39.6,84.947,28.867,84.947,28.867Z" transform="translate(119.718 3190.392)" fill="none" stroke="#000" stroke-width="0.145"/>
    <path id="Path_351" data-name="Path 351" d="M94.232,42.769s1.005-.971,1.737.091c.56.814,6.971,11.4,6.971,11.4s.686,1.143-.046,1.92-10.16,11.755-10.16,11.755a.875.875,0,0,1-1.234-.091c-.594-.64-7.882-11.77-7.882-11.77A1.654,1.654,0,0,1,83.8,54.2c.777-.821,10.431-11.435,10.431-11.435" transform="translate(121.335 3192.781)" fill="#fff"/>
    <path id="Path_352" data-name="Path 352" d="M94.232,42.769s1.005-.971,1.737.091c.56.814,6.971,11.4,6.971,11.4s.686,1.143-.046,1.92-10.16,11.755-10.16,11.755a.875.875,0,0,1-1.234-.091c-.594-.64-7.882-11.77-7.882-11.77A1.654,1.654,0,0,1,83.8,54.2C84.579,53.382,94.232,42.769,94.232,42.769Z" transform="translate(121.335 3192.781)" fill="none" stroke="#000" stroke-width="0.145"/>
    <path id="Path_353" data-name="Path 353" d="M81.333,57.1s.971-1,1.739.032c.587.795,7.46,10.829,7.46,10.829s.724,1.118.02,1.92L80.031,81.847A.875.875,0,0,1,78.8,81.8c-.615-.619-8.037-10.934-8.037-10.934a1.653,1.653,0,0,1,.118-1.879C71.626,68.137,81.333,57.1,81.333,57.1" transform="translate(119.119 3195.238)" fill="#fff"/>
    <path id="Path_354" data-name="Path 354" d="M81.333,57.1s.971-1,1.739.032c.587.795,7.46,10.829,7.46,10.829s.724,1.118.02,1.92L80.031,81.847A.875.875,0,0,1,78.8,81.8c-.615-.619-8.037-10.934-8.037-10.934a1.653,1.653,0,0,1,.118-1.879C71.626,68.137,81.333,57.1,81.333,57.1Z" transform="translate(119.119 3195.238)" fill="none" stroke="#000" stroke-width="0.145"/>
    <path id="Path_355" data-name="Path 355" d="M68.819,71.042s.971-1,1.739.032c.587.795,7.944,10.684,7.944,10.684s.724,1.118.021,1.92S67.352,96.145,67.352,96.145a.874.874,0,0,1-1.235-.049c-.616-.619-8.6-10.656-8.6-10.656a1.651,1.651,0,0,1,.12-1.879c.748-.848,11.183-12.519,11.183-12.519" transform="translate(116.843 3197.636)" fill="#fff"/>
    <path id="Path_356" data-name="Path 356" d="M68.819,71.042s.971-1,1.739.032c.587.795,7.944,10.684,7.944,10.684s.724,1.118.021,1.92S67.352,96.145,67.352,96.145a.874.874,0,0,1-1.235-.049c-.616-.619-8.6-10.656-8.6-10.656a1.651,1.651,0,0,1,.12-1.879C58.383,82.713,68.819,71.042,68.819,71.042Z" transform="translate(116.843 3197.636)" fill="none" stroke="#000" stroke-width="0.145"/>
    <path id="Path_357" data-name="Path 357" d="M58.453,57.969s.971-1,1.739.032c.587.795,8.523,11.307,8.523,11.307s.724,1.118.02,1.92S57.2,83.706,57.2,83.706a.874.874,0,0,1-1.235-.049c-.616-.619-9.129-11.513-9.129-11.513a1.651,1.651,0,0,1,.12-1.879c.748-.848,11.495-12.3,11.495-12.3" transform="translate(115.008 3195.389)" fill="#fff"/>
    <path id="Path_358" data-name="Path 358" d="M58.453,57.969s.971-1,1.739.032c.587.795,8.523,11.307,8.523,11.307s.724,1.118.02,1.92S57.2,83.706,57.2,83.706a.874.874,0,0,1-1.235-.049c-.616-.619-9.129-11.513-9.129-11.513a1.651,1.651,0,0,1,.12-1.879C47.705,69.417,58.453,57.969,58.453,57.969Z" transform="translate(115.008 3195.389)" fill="none" stroke="#000" stroke-width="0.145"/>
    <path id="Path_359" data-name="Path 359" d="M70.578,4.072s.473-.914,1.03-.124c.4.568,7.937,12.833,7.937,12.833a3.378,3.378,0,0,1,.148,2.449c-.443,1.328-3.806,9-3.806,9s-.5.708-1.18-.266-8.025-12.922-8.025-12.922a2.348,2.348,0,0,1-.059-1.829c.383-1,3.955-9.139,3.955-9.139" transform="translate(118.424 3186.123)" fill="#fff"/>
    <path id="Path_360" data-name="Path 360" d="M70.578,4.072s.473-.914,1.03-.124c.4.568,7.937,12.833,7.937,12.833a3.378,3.378,0,0,1,.148,2.449c-.443,1.328-3.806,9-3.806,9s-.5.708-1.18-.266-8.025-12.922-8.025-12.922a2.348,2.348,0,0,1-.059-1.829C67.006,12.209,70.578,4.072,70.578,4.072Z" transform="translate(118.424 3186.123)" fill="none" stroke="#000" stroke-width="0.145"/>
    <path id="Path_361" data-name="Path 361" d="M65.536,15.8s.473-.914,1.03-.124c.4.568,8.637,13.2,8.637,13.2a3.371,3.371,0,0,1,.146,2.448C74.908,32.646,71.308,41.5,71.308,41.5s-.5.708-1.18-.265-8.733-12.805-8.733-12.805a2.348,2.348,0,0,1-.059-1.829c.383-1,4.2-10.8,4.2-10.8" transform="translate(117.515 3188.138)" fill="#fff"/>
    <path id="Path_362" data-name="Path 362" d="M65.536,15.8s.473-.914,1.03-.124c.4.568,8.637,13.2,8.637,13.2a3.371,3.371,0,0,1,.146,2.448C74.908,32.646,71.308,41.5,71.308,41.5s-.5.708-1.18-.265-8.733-12.805-8.733-12.805a2.348,2.348,0,0,1-.059-1.829C61.719,25.595,65.536,15.8,65.536,15.8Z" transform="translate(117.515 3188.138)" fill="none" stroke="#000" stroke-width="0.145"/>
    <path id="Path_363" data-name="Path 363" d="M60.035,29.188s.473-.914,1.03-.124c.4.568,8.922,13.2,8.922,13.2a3.375,3.375,0,0,1,.148,2.448c-.443,1.328-4.751,11.242-4.751,11.242s-.5.708-1.18-.266-8.851-12.805-8.851-12.805a2.351,2.351,0,0,1-.059-1.828c.383-1,4.741-11.865,4.741-11.865" transform="translate(116.477 3190.44)" fill="#fff"/>
    <path id="Path_364" data-name="Path 364" d="M60.035,29.188s.473-.914,1.03-.124c.4.568,8.922,13.2,8.922,13.2a3.375,3.375,0,0,1,.148,2.448c-.443,1.328-4.751,11.242-4.751,11.242s-.5.708-1.18-.266-8.851-12.805-8.851-12.805a2.351,2.351,0,0,1-.059-1.828C55.677,40.051,60.035,29.188,60.035,29.188Z" transform="translate(116.477 3190.44)" fill="none" stroke="#000" stroke-width="0.145"/>
    <path id="Path_365" data-name="Path 365" d="M38.631,47.437s-.795-1.179.555-1.514C40.242,45.66,53.4,42.305,53.4,42.305s1.294-.359,1.7.217c.347.49,8.779,12.7,8.779,12.7s1.4,1.866-.185,2.257c-1.369.338-13.539,2.936-13.539,2.936s-1.441.39-2.01-.308c-.5-.612-9.519-12.674-9.519-12.674" transform="translate(113.6 3192.752)" fill="#fff"/>
    <path id="Path_366" data-name="Path 366" d="M38.631,47.437s-.795-1.179.555-1.514C40.242,45.66,53.4,42.305,53.4,42.305s1.294-.359,1.7.217c.347.49,8.779,12.7,8.779,12.7s1.4,1.866-.185,2.257c-1.369.338-13.539,2.936-13.539,2.936s-1.441.39-2.01-.308C47.653,59.5,38.631,47.437,38.631,47.437Z" transform="translate(113.6 3192.752)" fill="none" stroke="#000" stroke-width="0.145"/>
    <path id="Path_367" data-name="Path 367" d="M22.209,51.642s-.754-1.1.529-1.407c1-.244,13.213-3.068,13.213-3.068s1.228-.333,1.614.2c.329.455,9.1,11.8,9.1,11.8s1.325,1.734-.176,2.1c-1.3.314-12.744,2.805-12.744,2.805s-1.368.363-1.907-.287c-.472-.568-9.632-12.147-9.632-12.147" transform="translate(110.779 3193.589)" fill="#fff"/>
    <path id="Path_368" data-name="Path 368" d="M22.209,51.642s-.754-1.1.529-1.407c1-.244,13.213-3.068,13.213-3.068s1.228-.333,1.614.2c.329.455,9.1,11.8,9.1,11.8s1.325,1.734-.176,2.1c-1.3.314-12.744,2.805-12.744,2.805s-1.368.363-1.907-.287C31.369,63.221,22.209,51.642,22.209,51.642Z" transform="translate(110.779 3193.589)" fill="none" stroke="#000" stroke-width="0.145"/>
    <path id="Path_369" data-name="Path 369" d="M6.544,55.289s-.754-1.1.529-1.407c1-.244,12.259-3.124,12.259-3.124s1.228-.333,1.614.2c.329.455,9.1,11.923,9.1,11.923s1.325,1.733-.176,2.1c-1.3.314-11.85,2.67-11.85,2.67s-1.368.362-1.907-.287c-.472-.568-9.57-12.072-9.57-12.072" transform="translate(108.087 3194.206)" fill="#fff"/>
    <path id="Path_370" data-name="Path 370" d="M6.544,55.289s-.754-1.1.529-1.407c1-.244,12.259-3.124,12.259-3.124s1.228-.333,1.614.2c.329.455,9.1,11.923,9.1,11.923s1.325,1.733-.176,2.1c-1.3.314-11.85,2.67-11.85,2.67s-1.368.362-1.907-.287C15.642,66.792,6.544,55.289,6.544,55.289Z" transform="translate(108.087 3194.206)" fill="none" stroke="#000" stroke-width="0.145"/>
    <path id="Path_371" data-name="Path 371" d="M36.5,66.582l7.86,3.347a4.762,4.762,0,0,1,1.617,1.2c.526.715,8.95,11.244,8.95,11.244s1.039,1.368-.451.715c-1.234-.541-8.912-4.212-8.912-4.212a3.286,3.286,0,0,1-1.241-.979c-.564-.715-8.5-10.756-8.5-10.756s-.834-1.246.677-.564" transform="translate(113.118 3196.909)" fill="#fff"/>
    <path id="Path_372" data-name="Path 372" d="M36.5,66.582l7.86,3.347a4.762,4.762,0,0,1,1.617,1.2c.526.715,8.95,11.244,8.95,11.244s1.039,1.368-.451.715c-1.234-.541-8.912-4.212-8.912-4.212a3.286,3.286,0,0,1-1.241-.979c-.564-.715-8.5-10.756-8.5-10.756S34.991,65.9,36.5,66.582Z" transform="translate(113.118 3196.909)" fill="none" stroke="#000" stroke-width="0.145"/>
    <path id="Path_373" data-name="Path 373" d="M47.111,80.345l7.86,3.347a4.762,4.762,0,0,1,1.617,1.2c.526.715,8.2,10.071,8.2,10.071s1.039,1.366-.451.714c-1.234-.54-9.163-4.352-9.163-4.352a3.284,3.284,0,0,1-1.241-.977c-.564-.715-7.5-9.442-7.5-9.442s-.834-1.246.677-.564" transform="translate(114.941 3199.274)" fill="#fff"/>
    <path id="Path_374" data-name="Path 374" d="M47.111,80.345l7.86,3.347a4.762,4.762,0,0,1,1.617,1.2c.526.715,8.2,10.071,8.2,10.071s1.039,1.366-.451.714c-1.234-.54-9.163-4.352-9.163-4.352a3.284,3.284,0,0,1-1.241-.977c-.564-.715-7.5-9.442-7.5-9.442S45.6,79.663,47.111,80.345Z" transform="translate(114.941 3199.274)" fill="none" stroke="#000" stroke-width="0.145"/>
    <path id="Path_375" data-name="Path 375" d="M36.654,75.085l7.86,3.968a4.762,4.762,0,0,1,1.617,1.2c.526.714,6.847,9.049,6.847,9.049s1.039,1.368-.451.715c-1.234-.54-7.853-3.745-7.853-3.745a3.289,3.289,0,0,1-1.241-.977c-.564-.715-7.457-9.649-7.457-9.649s-.834-1.246.677-.564" transform="translate(113.144 3198.37)" fill="#fff"/>
    <path id="Path_376" data-name="Path 376" d="M36.654,75.085l7.86,3.968a4.762,4.762,0,0,1,1.617,1.2c.526.714,6.847,9.049,6.847,9.049s1.039,1.368-.451.715c-1.234-.54-7.853-3.745-7.853-3.745a3.289,3.289,0,0,1-1.241-.977c-.564-.715-7.457-9.649-7.457-9.649S35.142,74.4,36.654,75.085Z" transform="translate(113.144 3198.37)" fill="none" stroke="#000" stroke-width="0.145"/>
    <path id="Path_377" data-name="Path 377" d="M27.554,70.838l6.523,3.2a4.762,4.762,0,0,1,1.616,1.2c.527.715,6.735,8.937,6.735,8.937s1.038,1.368-.452.715c-1.234-.541-6.566-3.131-6.566-3.131a3.289,3.289,0,0,1-1.241-.977c-.564-.715-7.291-9.379-7.291-9.379s-.834-1.246.677-.564" transform="translate(111.58 3197.641)" fill="#fff"/>
    <path id="Path_378" data-name="Path 378" d="M27.554,70.838l6.523,3.2a4.762,4.762,0,0,1,1.616,1.2c.527.715,6.735,8.937,6.735,8.937s1.038,1.368-.452.715c-1.234-.541-6.566-3.131-6.566-3.131a3.289,3.289,0,0,1-1.241-.977c-.564-.715-7.291-9.379-7.291-9.379S26.042,70.156,27.554,70.838Z" transform="translate(111.58 3197.641)" fill="none" stroke="#000" stroke-width="0.145"/>
    <path id="Path_379" data-name="Path 379" d="M62.03,59l6.9,9.417a1.23,1.23,0,0,0,2.007-.1c.982-1.077,10.446-11.733,10.446-11.733a1.763,1.763,0,0,0,0-2.213C80.5,53.133,73.711,43.1,73.711,43.1s-.987-1.245-2.006-.309c-.832.763-3.036,2.933-3.036,2.933a3.135,3.135,0,0,0-.361.669c-.1.309-2.882,7.719-2.882,7.719A10.952,10.952,0,0,1,62.03,59" transform="translate(117.662 3192.795)" fill="#fff"/>
    <path id="Path_380" data-name="Path 380" d="M62.03,59l6.9,9.417a1.23,1.23,0,0,0,2.007-.1c.982-1.077,10.446-11.733,10.446-11.733a1.763,1.763,0,0,0,0-2.213C80.5,53.133,73.711,43.1,73.711,43.1s-.987-1.245-2.006-.309c-.832.763-3.036,2.933-3.036,2.933a3.135,3.135,0,0,0-.361.669c-.1.309-2.882,7.719-2.882,7.719A10.952,10.952,0,0,1,62.03,59Z" transform="translate(117.662 3192.795)" fill="none" stroke="#000" stroke-width="0.145"/>
    <path id="Path_381" data-name="Path 381" d="M33.374,72.353a5.815,5.815,0,0,0,1.9,1.6c1.194.607,7.977,3.826,7.977,3.826s1.417.607.343-.689-8.442-10.628-8.442-10.628a4.194,4.194,0,0,0-1.4-1.235c-.749-.323-4.291-1.8-4.291-1.8a2.743,2.743,0,0,0-1.336-.081,12.652,12.652,0,0,0-1.4.364s-.323.182-.183.343,6.824,8.3,6.824,8.3" transform="translate(111.557 3196.379)" fill="#fff"/>
    <path id="Path_382" data-name="Path 382" d="M33.374,72.353a5.815,5.815,0,0,0,1.9,1.6c1.194.607,7.977,3.826,7.977,3.826s1.417.607.343-.689-8.442-10.628-8.442-10.628a4.194,4.194,0,0,0-1.4-1.235c-.749-.323-4.291-1.8-4.291-1.8a2.743,2.743,0,0,0-1.336-.081,12.652,12.652,0,0,0-1.4.364s-.323.182-.183.343S33.374,72.353,33.374,72.353Z" transform="translate(111.557 3196.379)" fill="none" stroke="#000" stroke-width="0.145"/>
    <path id="Path_383" data-name="Path 383" d="M24.741,68.694a5.28,5.28,0,0,0,1.479,1.136c.807.374,5.32,2.3,5.32,2.3s1.658.538.748-.582S26.5,64.271,26.5,64.271s-.4-.434-.748-.36-3.751.778-3.751.778-.328.164-.209.343,2.944,3.661,2.944,3.661" transform="translate(110.742 3196.483)" fill="#fff"/>
    <path id="Path_384" data-name="Path 384" d="M24.741,68.694a5.28,5.28,0,0,0,1.479,1.136c.807.374,5.32,2.3,5.32,2.3s1.658.538.748-.582S26.5,64.271,26.5,64.271s-.4-.434-.748-.36-3.751.778-3.751.778-.328.164-.209.343S24.741,68.694,24.741,68.694Z" transform="translate(110.742 3196.483)" fill="none" stroke="#000" stroke-width="0.145"/>
  </g>
</svg>
