<svg id="Group_6" data-name="Group 6" xmlns="http://www.w3.org/2000/svg" xmlns:xlink="http://www.w3.org/1999/xlink" width="73.32" height="88.575" viewBox="0 0 73.32 88.575">
  <defs>
    <clipPath id="clip-path">
      <rect id="Rectangle_8" data-name="Rectangle 8" width="73.32" height="88.575" fill="none"/>
    </clipPath>
  </defs>
  <g id="Group_5" data-name="Group 5" transform="translate(0 0)" clip-path="url(#clip-path)">
    <path id="Path_61" data-name="Path 61" d="M70.614,91.191H3.006A2.463,2.463,0,0,1,.544,88.728V13.38a2.463,2.463,0,0,1,2.462-2.462H70.614a2.462,2.462,0,0,1,2.462,2.462V88.728a2.462,2.462,0,0,1-2.462,2.462" transform="translate(-0.15 -3.008)"/>
    <rect id="Rectangle_7" data-name="Rectangle 7" width="72.533" height="80.273" rx="3.399" transform="translate(0.394 7.909)" fill="none" stroke="#fff" stroke-width="1.086"/>
    <path id="Path_62" data-name="Path 62" d="M41.92,54.484l-.149-.057-.112-.051a1.965,1.965,0,0,1-.18-.1l-.095-.043-.134-.1-.062-.033L41,53.913,22.227,34.522l-.145-.169-.017-.029a2.477,2.477,0,0,1-.223-.369c-.014-.029-.027-.055-.038-.08a1.876,1.876,0,0,1-.083-.2,2.428,2.428,0,0,1-.115-.544l-.012-.123,0-.067a2.391,2.391,0,0,1,.052-.522l.012-.054.024-.094a2.339,2.339,0,0,1,.251-.586L26.187,24.6l.082-.082a2.4,2.4,0,0,1,.183-.2,2,2,0,0,1,.233-.206,2.174,2.174,0,0,1,.391-.234l.133-.072.194-.067L35.328,21.4A2.41,2.41,0,0,1,36,21.3H49.18a2.187,2.187,0,0,1,.673.086l8.128,2.4.1.059c.042.02.08.039.112.057a2.019,2.019,0,0,1,.338.206,2.088,2.088,0,0,1,.252.225c.037.037.095.1.16.175l.08.08.121.2,4.141,6.9a2.34,2.34,0,0,1,.245.572l.017.061.019.09a2.384,2.384,0,0,1,.054.535l0,.056-.01.119a2.372,2.372,0,0,1-.108.528l-.041.127-.1.2a2.225,2.225,0,0,1-.2.329l-.081.15-.182.156L44.393,53.877l-.057.08-.214.162-.037.032-.232.145-.134.07a2.531,2.531,0,0,1-.237.1l-.059.021s-.138.041-.182.052l-.136.075-.374,0-.058,0-.083-.007-.182-.006-.059-.017a2.263,2.263,0,0,1-.306-.065Z" transform="translate(-5.951 -5.868)"/>
    <path id="Path_63" data-name="Path 63" d="M45.521,58.03a2.61,2.61,0,0,1-1.224-.3c-.456-.233-10.433-5.045-17.035-8.226a4.7,4.7,0,0,1-1.574-1.247c-.417-.507-3.52-4.641-4.179-5.519a2.194,2.194,0,0,1-.293-.506c-.12-.12-.387-.422-1.313-1.553l-2.481.522-.151.009s-.114.008-.283.008a2.985,2.985,0,0,1-2.135-.7c-.13-.122-.328-.306-5.525-6.855l-.119-.15-.088-.17a3.416,3.416,0,0,1,.122-3.3c.325-.522,2.764-4.688,3.677-6.249l.141-.241.033-.031a2.913,2.913,0,0,1,.248-.8c.26-.554,2.636-4.563,3.645-6.261l.059-.1.07-.091a3.25,3.25,0,0,1,.287-.325,2.777,2.777,0,0,1,.29-.786c.256-.465,2.807-4.749,3.316-5.6l.022-.037.023-.036a3.924,3.924,0,0,1,2.022-1.507c.6-.187,5.969-1.912,6.023-1.929l.079-.026.08-.018a4.082,4.082,0,0,1,.87-.093H30.2A2.61,2.61,0,0,1,30.81,5.6c.38-.137,6.366-2.137,7.047-2.365l.156-.052.162-.025a4.409,4.409,0,0,1,.648-.046c.071,0,.141,0,.212.005a3.529,3.529,0,0,1,1.147-.632c.741-.252,6.6-2.171,6.849-2.253L47.146.2l.118-.023A6.908,6.908,0,0,1,48.5.059a3.14,3.14,0,0,1,2.623,1.083c.45.574,3.331,5.262,4.548,7.25l.1.167.067.184a4.162,4.162,0,0,1-.055,2.726c-.128.356-.454,1.179-.791,2.015l2.038.206.045.007a4.04,4.04,0,0,1,2.654,1.9c.582.913,4.008,6.568,4.154,6.808l.057.094.046.1c.023.051.048.107.072.167a3.163,3.163,0,0,1,.633.613c.39.5,2.867,4.484,4.308,6.814l.056.09.046.1a3,3,0,0,1-.372,3.159c-.414.513-5.294,6.114-5.848,6.75l-.085.1-.1.085a2.506,2.506,0,0,1-.651.408,2.891,2.891,0,0,1-.5.814c-.359.413-5.84,6.648-6.073,6.913l-.254.288-.343.172c-.028.014-.065.032-.114.053a2.492,2.492,0,0,1-.459.753c-.267.3-6.308,6.983-6.565,7.267l-.172.19-.214.14a3.59,3.59,0,0,1-1.841.569" transform="translate(-2.413 -0.016)" fill="#fff"/>
    <path id="Path_65" data-name="Path 65" d="M9.527,32.83a1.554,1.554,0,0,1,.048-1.436c.43-.695,3.9-6.631,3.9-6.631a.739.739,0,0,1,.724-.152c.4.151.076-.118.076-.118L14.1,24.35a.752.752,0,0,1-.093-.884c.262-.555,3.748-6.418,3.748-6.418s.4-.53.871-.482.031-.172.031-.172l-.077-.046a.554.554,0,0,1-.048-.732c.264-.482,3.456-5.838,3.456-5.838A2.044,2.044,0,0,1,23,9.03c.654-.2,6.367-2.039,6.367-2.039a1.777,1.777,0,0,1,1.308.2c.5.389.187-.2.187-.2a.53.53,0,0,1,.375-.5c.388-.14,7.379-2.475,7.379-2.475s1-.156,1.37.327.28-.4.28-.4.032-.451.809-.716S48.269.856,48.269.856s1.589-.312,2.04.264,4.655,7.442,4.655,7.442a2.314,2.314,0,0,1-.062,1.463c-.3.826-1.791,4.468-1.791,4.468s-.046.125.062.141,4.734.482,4.734.482a2.179,2.179,0,0,1,1.354,1.063c.608.953,4.352,7.131,4.352,7.131s.26.564.126.811a.93.93,0,0,1,.866.419c.4.514,4.408,6.992,4.408,6.992a1.126,1.126,0,0,1-.134,1.135c-.425.526-6.113,7.053-6.113,7.053a1.665,1.665,0,0,1-1.119.224,1.876,1.876,0,0,1-.28,1.253c-.38.437-6.393,7.277-6.393,7.277a2.156,2.156,0,0,1-1.063.18s.123.828-.156,1.142-6.908,7.647-6.908,7.647-.672.436-1.142.19-18.023-8.7-18.023-8.7a2.921,2.921,0,0,1-.945-.758c-.435-.53-4.359-5.761-4.359-5.761s-.234-.28.234-.591-.156-.156-.156-.156-.39.171-.561.015-2.04-2.46-2.04-2.46L16.15,40s-.779.047-1.012-.171-5.611-7-5.611-7" transform="translate(-2.582 -0.213)" fill="#1a171b"/>
    <path id="Path_66" data-name="Path 66" d="M25.99,12.473l-2.609,4.271s-.4.672.472.458,5.765-1.645,5.765-1.645a2.043,2.043,0,0,0,.929-.644c.387-.486,2.718-4.792,2.718-4.792s.3-.515-.429-.314-5.789,1.823-5.789,1.823a2.313,2.313,0,0,0-1.058.844" transform="translate(-6.417 -2.689)" fill="#fff"/>
    <path id="Path_67" data-name="Path 67" d="M25.99,12.473l-2.609,4.271s-.4.672.472.458,5.765-1.645,5.765-1.645a2.043,2.043,0,0,0,.929-.644c.387-.486,2.718-4.792,2.718-4.792s.3-.515-.429-.314-5.789,1.823-5.789,1.823A2.313,2.313,0,0,0,25.99,12.473Z" transform="translate(-6.417 -2.689)" fill="none" stroke="#000" stroke-width="0.123"/>
    <path id="Path_68" data-name="Path 68" d="M37.887,8.891,35.86,13.115s-.4.673.472.458,5.842-1.707,5.842-1.707a2.058,2.058,0,0,0,.931-.644c.386-.486,2.2-4.761,2.2-4.761s.3-.515-.429-.315-5.936,1.9-5.936,1.9a1.843,1.843,0,0,0-1.058.844" transform="translate(-9.856 -1.681)" fill="#fff"/>
    <path id="Path_69" data-name="Path 69" d="M37.887,8.891,35.86,13.115s-.4.673.472.458,5.842-1.707,5.842-1.707a2.058,2.058,0,0,0,.931-.644c.386-.486,2.2-4.761,2.2-4.761s.3-.515-.429-.315-5.936,1.9-5.936,1.9A1.843,1.843,0,0,0,37.887,8.891Z" transform="translate(-9.856 -1.681)" fill="none" stroke="#000" stroke-width="0.123"/>
    <path id="Path_70" data-name="Path 70" d="M19.859,22.635l-2.716,4.78s-.426.745.488.515,5.985-1.605,5.985-1.605a2.133,2.133,0,0,0,.979-.709c.409-.538,2.868-5.387,2.868-5.387s.319-.571-.445-.355-6.045,1.831-6.045,1.831a2.091,2.091,0,0,0-1.115.93" transform="translate(-4.697 -5.463)" fill="#fff"/>
    <path id="Path_71" data-name="Path 71" d="M19.859,22.635l-2.716,4.78s-.426.745.488.515,5.985-1.605,5.985-1.605a2.133,2.133,0,0,0,.979-.709c.409-.538,2.868-5.387,2.868-5.387s.319-.571-.445-.355-6.045,1.831-6.045,1.831A2.091,2.091,0,0,0,19.859,22.635Z" transform="translate(-4.697 -5.463)" fill="none" stroke="#000" stroke-width="0.123"/>
    <path id="Path_72" data-name="Path 72" d="M14.04,33.466l-3.017,5.291s-.427.745.488.515,5.983-1.516,5.983-1.516a2.133,2.133,0,0,0,.979-.709c.409-.538,2.993-5.7,2.993-5.7s.319-.571-.446-.355-5.866,1.542-5.866,1.542a2.2,2.2,0,0,0-1.116.93" transform="translate(-3.01 -8.527)" fill="#fff"/>
    <path id="Path_73" data-name="Path 73" d="M14.04,33.466l-3.017,5.291s-.427.745.488.515,5.983-1.516,5.983-1.516a2.133,2.133,0,0,0,.979-.709c.409-.538,2.993-5.7,2.993-5.7s.319-.571-.446-.355-5.866,1.542-5.866,1.542A2.2,2.2,0,0,0,14.04,33.466Z" transform="translate(-3.01 -8.527)" fill="none" stroke="#000" stroke-width="0.123"/>
    <path id="Path_74" data-name="Path 74" d="M26.723,29.916l-2.6,5.5s-.426.745.488.515,6.721-1.647,6.721-1.647a2.128,2.128,0,0,0,.979-.708c.409-.538,2.776-5.956,2.776-5.956s.319-.571-.446-.355-6.8,1.717-6.8,1.717a2,2,0,0,0-1.116.93" transform="translate(-6.62 -7.5)" fill="#fff"/>
    <path id="Path_75" data-name="Path 75" d="M26.723,29.916l-2.6,5.5s-.426.745.488.515,6.721-1.647,6.721-1.647a2.128,2.128,0,0,0,.979-.708c.409-.538,2.776-5.956,2.776-5.956s.319-.571-.446-.355-6.8,1.717-6.8,1.717A2,2,0,0,0,26.723,29.916Z" transform="translate(-6.62 -7.5)" fill="none" stroke="#000" stroke-width="0.123"/>
    <path id="Path_76" data-name="Path 76" d="M32.609,18.776,29.965,23.82s-.426.745.489.515,6.427-1.583,6.427-1.583a2.133,2.133,0,0,0,.979-.709c.409-.538,2.649-5.729,2.649-5.729s.319-.572-.446-.356-6.34,1.886-6.34,1.886a2,2,0,0,0-1.116.93" transform="translate(-8.23 -4.384)" fill="#fff"/>
    <path id="Path_77" data-name="Path 77" d="M32.609,18.776,29.965,23.82s-.426.745.489.515,6.427-1.583,6.427-1.583a2.133,2.133,0,0,0,.979-.709c.409-.538,2.649-5.729,2.649-5.729s.319-.572-.446-.356-6.34,1.886-6.34,1.886A2,2,0,0,0,32.609,18.776Z" transform="translate(-8.23 -4.384)" fill="none" stroke="#000" stroke-width="0.123"/>
    <path id="Path_78" data-name="Path 78" d="M41.026,25.766l-2.553,5.575s-.425.745.489.515S46.6,29.913,46.6,29.913a2.132,2.132,0,0,0,.98-.708c.409-.538,2.365-6.132,2.365-6.132s.214-.539-.446-.355c-.765.214-7.355,2.118-7.355,2.118a1.751,1.751,0,0,0-1.115.93" transform="translate(-10.574 -6.25)" fill="#fff"/>
    <path id="Path_79" data-name="Path 79" d="M41.026,25.766l-2.553,5.575s-.425.745.489.515S46.6,29.913,46.6,29.913a2.132,2.132,0,0,0,.98-.708c.409-.538,2.365-6.132,2.365-6.132s.214-.539-.446-.355c-.765.214-7.355,2.118-7.355,2.118A1.751,1.751,0,0,0,41.026,25.766Z" transform="translate(-10.574 -6.25)" fill="none" stroke="#000" stroke-width="0.123"/>
    <path id="Path_80" data-name="Path 80" d="M46.082,14.71l-2.151,4.884s-.426.745.488.514,6.774-1.943,6.774-1.943a2.133,2.133,0,0,0,.979-.709c.409-.538,2.356-5.493,2.356-5.493s.213-.539-.446-.356c-.765.214-6.885,2.172-6.885,2.172a1.753,1.753,0,0,0-1.116.93" transform="translate(-12.078 -3.188)" fill="#fff"/>
    <path id="Path_81" data-name="Path 81" d="M46.082,14.71l-2.151,4.884s-.426.745.488.514,6.774-1.943,6.774-1.943a2.133,2.133,0,0,0,.979-.709c.409-.538,2.356-5.493,2.356-5.493s.213-.539-.446-.356c-.765.214-6.885,2.172-6.885,2.172A1.753,1.753,0,0,0,46.082,14.71Z" transform="translate(-12.078 -3.188)" fill="none" stroke="#000" stroke-width="0.123"/>
    <path id="Path_82" data-name="Path 82" d="M51.13,4.511,49.321,8.7s-.426.745.489.515S56.2,7.276,56.2,7.276a2.128,2.128,0,0,0,.979-.708c.409-.538,2.033-4.741,2.033-4.741s.214-.539-.445-.355c-.766.214-6.524,2.108-6.524,2.108a1.753,1.753,0,0,0-1.116.93" transform="translate(-13.563 -0.395)" fill="#fff"/>
    <path id="Path_83" data-name="Path 83" d="M51.13,4.511,49.321,8.7s-.426.745.489.515S56.2,7.276,56.2,7.276a2.128,2.128,0,0,0,.979-.708c.409-.538,2.033-4.741,2.033-4.741s.214-.539-.445-.355c-.766.214-6.524,2.108-6.524,2.108A1.753,1.753,0,0,0,51.13,4.511Z" transform="translate(-13.563 -0.395)" fill="none" stroke="#000" stroke-width="0.123"/>
    <path id="Path_84" data-name="Path 84" d="M74.555,23.122s.53-.512.916.048c.3.43,3.874,6.23,3.874,6.23s.362.6-.024,1.013-5.3,6.138-5.3,6.138a.462.462,0,0,1-.651-.048c-.313-.338-4.484-6.293-4.484-6.293a.872.872,0,0,1,.1-.988c.41-.434,5.57-6.1,5.57-6.1" transform="translate(-18.951 -6.312)" fill="#fff"/>
    <path id="Path_85" data-name="Path 85" d="M74.555,23.122s.53-.512.916.048c.3.43,3.874,6.23,3.874,6.23s.362.6-.024,1.013-5.3,6.138-5.3,6.138a.462.462,0,0,1-.651-.048c-.313-.338-4.484-6.293-4.484-6.293a.872.872,0,0,1,.1-.988C69.4,28.787,74.555,23.122,74.555,23.122Z" transform="translate(-18.951 -6.312)" fill="none" stroke="#000" stroke-width="0.123"/>
    <path id="Path_86" data-name="Path 86" d="M82.522,34.989s.53-.512.916.048c.3.43,3.679,6.019,3.679,6.019s.362.6-.025,1.013-5.362,6.2-5.362,6.2a.462.462,0,0,1-.651-.048c-.313-.338-4.159-6.211-4.159-6.211a.872.872,0,0,1,.1-.989c.41-.434,5.5-6.035,5.5-6.035" transform="translate(-21.164 -9.582)" fill="#fff"/>
    <path id="Path_87" data-name="Path 87" d="M82.522,34.989s.53-.512.916.048c.3.43,3.679,6.019,3.679,6.019s.362.6-.025,1.013-5.362,6.2-5.362,6.2a.462.462,0,0,1-.651-.048c-.313-.338-4.159-6.211-4.159-6.211a.872.872,0,0,1,.1-.989C77.428,40.589,82.522,34.989,82.522,34.989Z" transform="translate(-21.164 -9.582)" fill="none" stroke="#000" stroke-width="0.123"/>
    <path id="Path_88" data-name="Path 88" d="M71.514,47.209s.513-.53.917.017c.311.419,3.937,5.714,3.937,5.714s.382.59.011,1.013L70.826,60.27a.461.461,0,0,1-.652-.026c-.325-.327-4.241-5.77-4.241-5.77A.874.874,0,0,1,66,53.483c.395-.448,5.518-6.274,5.518-6.274" transform="translate(-18.132 -12.945)" fill="#fff"/>
    <path id="Path_89" data-name="Path 89" d="M71.514,47.209s.513-.53.917.017c.311.419,3.937,5.714,3.937,5.714s.382.59.011,1.013L70.826,60.27a.461.461,0,0,1-.652-.026c-.325-.327-4.241-5.77-4.241-5.77A.874.874,0,0,1,66,53.483C66.39,53.035,71.514,47.209,71.514,47.209Z" transform="translate(-18.132 -12.945)" fill="none" stroke="#000" stroke-width="0.123"/>
    <path id="Path_90" data-name="Path 90" d="M60.595,59.113s.513-.53.917.017c.311.419,4.193,5.638,4.193,5.638s.382.59.011,1.013-5.895,6.579-5.895,6.579a.462.462,0,0,1-.653-.026c-.325-.327-4.538-5.623-4.538-5.623a.872.872,0,0,1,.062-.991c.395-.448,5.9-6.607,5.9-6.607" transform="translate(-15.017 -16.225)" fill="#fff"/>
    <path id="Path_91" data-name="Path 91" d="M60.595,59.113s.513-.53.917.017c.311.419,4.193,5.638,4.193,5.638s.382.59.011,1.013-5.895,6.579-5.895,6.579a.462.462,0,0,1-.653-.026c-.325-.327-4.538-5.623-4.538-5.623a.872.872,0,0,1,.062-.991C55.087,65.272,60.595,59.113,60.595,59.113Z" transform="translate(-15.017 -16.225)" fill="none" stroke="#000" stroke-width="0.123"/>
    <path id="Path_92" data-name="Path 92" d="M51.643,47.954s.513-.53.917.017c.311.419,4.5,5.967,4.5,5.967s.382.59.01,1.013-6.086,6.585-6.086,6.585a.461.461,0,0,1-.652-.026c-.325-.327-4.817-6.075-4.817-6.075a.874.874,0,0,1,.062-.992c.395-.448,6.067-6.489,6.067-6.489" transform="translate(-12.506 -13.15)" fill="#fff"/>
    <path id="Path_93" data-name="Path 93" d="M51.643,47.954s.513-.53.917.017c.311.419,4.5,5.967,4.5,5.967s.382.59.01,1.013-6.086,6.585-6.086,6.585a.461.461,0,0,1-.652-.026c-.325-.327-4.817-6.075-4.817-6.075a.874.874,0,0,1,.062-.992C45.971,54,51.643,47.954,51.643,47.954Z" transform="translate(-12.506 -13.15)" fill="none" stroke="#000" stroke-width="0.123"/>
    <path id="Path_94" data-name="Path 94" d="M64.521,1.942s.25-.482.544-.066c.212.3,4.188,6.773,4.188,6.773a1.779,1.779,0,0,1,.078,1.292c-.233.7-2.008,4.748-2.008,4.748s-.264.374-.623-.14-4.234-6.819-4.234-6.819a1.239,1.239,0,0,1-.031-.966c.2-.529,2.087-4.823,2.087-4.823" transform="translate(-17.181 -0.47)" fill="#fff"/>
    <path id="Path_95" data-name="Path 95" d="M64.521,1.942s.25-.482.544-.066c.212.3,4.188,6.773,4.188,6.773a1.779,1.779,0,0,1,.078,1.292c-.233.7-2.008,4.748-2.008,4.748s-.264.374-.623-.14-4.234-6.819-4.234-6.819a1.239,1.239,0,0,1-.031-.966C62.636,6.236,64.521,1.942,64.521,1.942Z" transform="translate(-17.181 -0.47)" fill="none" stroke="#000" stroke-width="0.123"/>
    <path id="Path_96" data-name="Path 96" d="M60.136,11.949s.25-.482.544-.066c.212.3,4.557,6.966,4.557,6.966a1.78,1.78,0,0,1,.078,1.292c-.234.7-2.134,5.371-2.134,5.371s-.264.374-.622-.14-4.609-6.758-4.609-6.758a1.241,1.241,0,0,1-.031-.965c.2-.53,2.217-5.7,2.217-5.7" transform="translate(-15.937 -3.228)" fill="#fff"/>
    <path id="Path_97" data-name="Path 97" d="M60.136,11.949s.25-.482.544-.066c.212.3,4.557,6.966,4.557,6.966a1.78,1.78,0,0,1,.078,1.292c-.234.7-2.134,5.371-2.134,5.371s-.264.374-.622-.14-4.609-6.758-4.609-6.758a1.241,1.241,0,0,1-.031-.965C58.122,17.121,60.136,11.949,60.136,11.949Z" transform="translate(-15.937 -3.228)" fill="none" stroke="#000" stroke-width="0.123"/>
    <path id="Path_98" data-name="Path 98" d="M55.264,23.383s.25-.482.544-.066c.212.3,4.707,6.966,4.707,6.966a1.778,1.778,0,0,1,.078,1.292c-.233.7-2.507,5.932-2.507,5.932s-.264.374-.623-.141-4.671-6.757-4.671-6.757a1.242,1.242,0,0,1-.031-.965c.2-.53,2.5-6.261,2.5-6.261" transform="translate(-14.516 -6.378)" fill="#fff"/>
    <path id="Path_99" data-name="Path 99" d="M55.264,23.383s.25-.482.544-.066c.212.3,4.707,6.966,4.707,6.966a1.778,1.778,0,0,1,.078,1.292c-.233.7-2.507,5.932-2.507,5.932s-.264.374-.623-.141-4.671-6.757-4.671-6.757a1.242,1.242,0,0,1-.031-.965C52.965,29.115,55.264,23.383,55.264,23.383Z" transform="translate(-14.516 -6.378)" fill="none" stroke="#000" stroke-width="0.123"/>
    <path id="Path_100" data-name="Path 100" d="M38.513,37.4s-.419-.622.293-.8c.557-.138,7.5-1.909,7.5-1.909s.682-.189.9.114c.183.259,4.633,6.7,4.633,6.7s.736.985-.1,1.191c-.722.178-7.145,1.55-7.145,1.55s-.76.206-1.061-.163c-.262-.323-5.023-6.688-5.023-6.688" transform="translate(-10.579 -9.543)" fill="#fff"/>
    <path id="Path_101" data-name="Path 101" d="M38.513,37.4s-.419-.622.293-.8c.557-.138,7.5-1.909,7.5-1.909s.682-.189.9.114c.183.259,4.633,6.7,4.633,6.7s.736.985-.1,1.191c-.722.178-7.145,1.55-7.145,1.55s-.76.206-1.061-.163C43.274,43.763,38.513,37.4,38.513,37.4Z" transform="translate(-10.579 -9.543)" fill="none" stroke="#000" stroke-width="0.123"/>
    <path id="Path_102" data-name="Path 102" d="M24.5,41.2s-.4-.578.279-.743c.528-.129,6.973-1.619,6.973-1.619s.648-.175.852.106c.173.24,4.8,6.23,4.8,6.23s.7.915-.093,1.106c-.685.166-6.725,1.481-6.725,1.481s-.722.192-1.006-.151c-.249-.3-5.083-6.41-5.083-6.41" transform="translate(-6.719 -10.688)" fill="#fff"/>
    <path id="Path_103" data-name="Path 103" d="M24.5,41.2s-.4-.578.279-.743c.528-.129,6.973-1.619,6.973-1.619s.648-.175.852.106c.173.24,4.8,6.23,4.8,6.23s.7.915-.093,1.106c-.685.166-6.725,1.481-6.725,1.481s-.722.192-1.006-.151C29.333,47.314,24.5,41.2,24.5,41.2Z" transform="translate(-6.719 -10.688)" fill="none" stroke="#000" stroke-width="0.123"/>
    <path id="Path_104" data-name="Path 104" d="M11.127,44.3s-.4-.578.279-.743c.528-.129,6.469-1.649,6.469-1.649s.648-.176.852.106c.173.241,4.8,6.292,4.8,6.292s.7.915-.093,1.107c-.686.165-6.253,1.408-6.253,1.408s-.722.191-1.007-.151c-.248-.3-5.049-6.37-5.049-6.37" transform="translate(-3.034 -11.532)" fill="#fff"/>
    <path id="Path_105" data-name="Path 105" d="M11.127,44.3s-.4-.578.279-.743c.528-.129,6.469-1.649,6.469-1.649s.648-.176.852.106c.173.241,4.8,6.292,4.8,6.292s.7.915-.093,1.107c-.686.165-6.253,1.408-6.253,1.408s-.722.191-1.007-.151C15.928,50.368,11.127,44.3,11.127,44.3Z" transform="translate(-3.034 -11.532)" fill="none" stroke="#000" stroke-width="0.123"/>
    <path id="Path_106" data-name="Path 106" d="M36.477,55.382l4.147,1.766a2.51,2.51,0,0,1,.853.635c.278.377,4.723,5.933,4.723,5.933s.548.722-.238.377c-.651-.285-4.7-2.223-4.7-2.223a1.735,1.735,0,0,1-.655-.517L36.12,55.68s-.44-.658.357-.3" transform="translate(-9.919 -15.231)" fill="#fff"/>
    <path id="Path_107" data-name="Path 107" d="M36.477,55.382l4.147,1.766a2.51,2.51,0,0,1,.853.635c.278.377,4.723,5.933,4.723,5.933s.548.722-.238.377c-.651-.285-4.7-2.223-4.7-2.223a1.735,1.735,0,0,1-.655-.517L36.12,55.68S35.679,55.022,36.477,55.382Z" transform="translate(-9.919 -15.231)" fill="none" stroke="#000" stroke-width="0.123"/>
    <path id="Path_108" data-name="Path 108" d="M45.532,67.131,49.679,68.9a2.51,2.51,0,0,1,.853.635c.278.377,4.327,5.314,4.327,5.314s.548.722-.238.377c-.651-.285-4.836-2.3-4.836-2.3a1.723,1.723,0,0,1-.654-.516c-.3-.377-3.957-4.982-3.957-4.982s-.44-.658.357-.3" transform="translate(-12.415 -18.468)" fill="#fff"/>
    <path id="Path_109" data-name="Path 109" d="M45.532,67.131,49.679,68.9a2.51,2.51,0,0,1,.853.635c.278.377,4.327,5.314,4.327,5.314s.548.722-.238.377c-.651-.285-4.836-2.3-4.836-2.3a1.723,1.723,0,0,1-.654-.516c-.3-.377-3.957-4.982-3.957-4.982S44.734,66.771,45.532,67.131Z" transform="translate(-12.415 -18.468)" fill="none" stroke="#000" stroke-width="0.123"/>
    <path id="Path_110" data-name="Path 110" d="M36.606,62.641l4.147,2.094a2.51,2.51,0,0,1,.853.635c.278.377,3.614,4.776,3.614,4.776s.548.722-.238.377c-.651-.285-4.144-1.977-4.144-1.977a1.728,1.728,0,0,1-.655-.516c-.3-.377-3.934-5.091-3.934-5.091s-.44-.658.357-.3" transform="translate(-9.955 -17.231)" fill="#fff"/>
    <path id="Path_111" data-name="Path 111" d="M36.606,62.641l4.147,2.094a2.51,2.51,0,0,1,.853.635c.278.377,3.614,4.776,3.614,4.776s.548.722-.238.377c-.651-.285-4.144-1.977-4.144-1.977a1.728,1.728,0,0,1-.655-.516c-.3-.377-3.934-5.091-3.934-5.091S35.808,62.281,36.606,62.641Z" transform="translate(-9.955 -17.231)" fill="none" stroke="#000" stroke-width="0.123"/>
    <path id="Path_112" data-name="Path 112" d="M28.838,59.015,32.28,60.7a2.517,2.517,0,0,1,.853.635c.277.377,3.553,4.715,3.553,4.715s.548.722-.238.377c-.651-.285-3.465-1.652-3.465-1.652a1.737,1.737,0,0,1-.655-.516c-.3-.377-3.848-4.949-3.848-4.949s-.44-.658.357-.3" transform="translate(-7.814 -16.232)" fill="#fff"/>
    <path id="Path_113" data-name="Path 113" d="M28.838,59.015,32.28,60.7a2.517,2.517,0,0,1,.853.635c.277.377,3.553,4.715,3.553,4.715s.548.722-.238.377c-.651-.285-3.465-1.652-3.465-1.652a1.737,1.737,0,0,1-.655-.516c-.3-.377-3.848-4.949-3.848-4.949S28.04,58.655,28.838,59.015Z" transform="translate(-7.814 -16.232)" fill="none" stroke="#000" stroke-width="0.123"/>
    <path id="Path_114" data-name="Path 114" d="M58.563,43.579l3.639,4.97a.649.649,0,0,0,1.059-.054c.518-.568,5.513-6.192,5.513-6.192a.932.932,0,0,0,0-1.168c-.461-.651-4.047-5.947-4.047-5.947s-.521-.656-1.059-.163c-.439.4-1.6,1.548-1.6,1.548a1.633,1.633,0,0,0-.191.353C61.822,37.089,60.355,41,60.355,41a5.779,5.779,0,0,1-1.792,2.58" transform="translate(-16.137 -9.601)" fill="#fff"/>
    <path id="Path_115" data-name="Path 115" d="M58.563,43.579l3.639,4.97a.649.649,0,0,0,1.059-.054c.518-.568,5.513-6.192,5.513-6.192a.932.932,0,0,0,0-1.168c-.461-.651-4.047-5.947-4.047-5.947s-.521-.656-1.059-.163c-.439.4-1.6,1.548-1.6,1.548a1.633,1.633,0,0,0-.191.353C61.822,37.089,60.355,41,60.355,41A5.779,5.779,0,0,1,58.563,43.579Z" transform="translate(-16.137 -9.601)" fill="none" stroke="#000" stroke-width="0.123"/>
    <path id="Path_116" data-name="Path 116" d="M31.865,57.423a3.071,3.071,0,0,0,1,.844c.63.32,4.209,2.019,4.209,2.019s.748.32.182-.363-4.455-5.609-4.455-5.609a2.208,2.208,0,0,0-.737-.652c-.395-.171-2.265-.95-2.265-.95a1.449,1.449,0,0,0-.7-.043,6.684,6.684,0,0,0-.737.192s-.171.1-.1.182,3.6,4.38,3.6,4.38" transform="translate(-7.783 -14.506)" fill="#fff"/>
    <path id="Path_117" data-name="Path 117" d="M31.865,57.423a3.071,3.071,0,0,0,1,.844c.63.32,4.209,2.019,4.209,2.019s.748.32.182-.363-4.455-5.609-4.455-5.609a2.208,2.208,0,0,0-.737-.652c-.395-.171-2.265-.95-2.265-.95a1.449,1.449,0,0,0-.7-.043,6.684,6.684,0,0,0-.737.192s-.171.1-.1.182S31.865,57.423,31.865,57.423Z" transform="translate(-7.783 -14.506)" fill="none" stroke="#000" stroke-width="0.123"/>
    <path id="Path_118" data-name="Path 118" d="M25.764,55.689a2.78,2.78,0,0,0,.781.6c.425.2,2.807,1.215,2.807,1.215s.875.284.394-.308-3.051-3.84-3.051-3.84-.213-.229-.395-.189-1.979.41-1.979.41-.173.086-.11.181,1.553,1.932,1.553,1.932" transform="translate(-6.667 -14.649)" fill="#fff"/>
    <path id="Path_119" data-name="Path 119" d="M25.764,55.689a2.78,2.78,0,0,0,.781.6c.425.2,2.807,1.215,2.807,1.215s.875.284.394-.308-3.051-3.84-3.051-3.84-.213-.229-.395-.189-1.979.41-1.979.41-.173.086-.11.181S25.764,55.689,25.764,55.689Z" transform="translate(-6.667 -14.649)" fill="none" stroke="#000" stroke-width="0.123"/>
    <line id="Line_4" data-name="Line 4" x2="72.683" transform="translate(0.319 59.566)"/>
    <line id="Line_5" data-name="Line 5" x2="72.683" transform="translate(0.319 59.566)" fill="none" stroke="#fff" stroke-width="1.086"/>
    <g id="Group_73" data-name="Group 73">
      <path id="Path_120" data-name="Path 120" d="M16.157,99.779a1.8,1.8,0,0,1-1.687,1.044c-.974.042-2.131-.682-2.131-2.464a2.174,2.174,0,0,1,2.034-2.381,2.265,2.265,0,0,1,1.213.293,1.513,1.513,0,0,1,.711,1.016h2.688V93.445H16.338v.711H16.31a2.962,2.962,0,0,0-2.341-.932c-3.009,0-4.723,2.269-4.723,5.123,0,3.021,1.742,5.373,4.919,5.373,2.466,0,4.792-1.35,5.1-3.94Z" transform="translate(-2.548 -25.688)" fill="#fff"/>
      <path id="Path_121" data-name="Path 121" d="M70.809,99.585l-.446,1.932-3.953,0V95.589h1.03v-2.06H62.37v2.06H63.4v5.931H61.7V99.6H59.661l-.446,1.921H56.178V99.682h1.936V97.427H56.178V95.589h3.038l.446,1.768H61.7V93.529H42.647V95.16c-.33-1.193-1.369-1.631-3.281-1.631H32.721v2.06h1.017v5.931h-.609l-1.992-5.931h.906v-2.06H24.171v2.06h.906l-2.063,5.931-.711,2.061h4.835V101.52H26.023l.446-1.281h3l.446,1.281h-1.1v2.061h7.941l-.005-4.01h1.687c.919,0,1.045.682,1.045,1.434v2.576h3.845V101.52h-.836V99.654c0-.946-.989-.96-1.671-1.127V98.5a2.05,2.05,0,0,0,1.831-1.434v.264h1.866l.39-1.74h1.17v5.931H44.9v2.061h5.35V101.52h-1.17V95.589h1.155l.4,1.74h1.868v-1.74h.658v5.931h-.961V103.8H72.891V99.572Zm-43.755-1,.934-2.911h.028l.9,2.911Zm11.462-1.073h-1.77V95.589h1.77c.682,0,1.17.307,1.17.975,0,.571-.488.946-1.17.946" transform="translate(-6.146 -25.772)" fill="#fff"/>
    </g>
  </g>
</svg>
